<svg xmlns="http://www.w3.org/2000/svg" width="1200" height="630" viewBox="0 0 1200 630">
  <rect width="1200" height="630" fill="#000"/>
  <path d="M0 84h1200M0 546h1200M84 0v630M1116 0v630" stroke="#202422"/>
  <path d="M84 315h1032" stroke="#171a18" stroke-dasharray="3 8"/>
  <g transform="translate(98 96) scale(2.25)" fill="none">
    <path d="M25.2 4.8A19.2 19.2 0 1 0 42.1 33.2" stroke="#75c7c3" stroke-width="3.6" stroke-linecap="round"/>
    <path d="M15.2 31.8 24 12.7l8.8 19.1M18.8 24.2h10.4" stroke="#f1f4f2" stroke-width="3.3" stroke-linecap="round" stroke-linejoin="round"/>
    <path d="M6.8 31.6c6.7-4.8 11.6-4.5 17-.8 5.4 3.7 10.5 2.4 17.7-4.6" stroke="#75c7c3" stroke-width="3.6" stroke-linecap="round"/>
  </g>
  <text x="98" y="305" fill="#f1f4f2" font-family="ui-monospace, SFMono-Regular, Menlo, monospace" font-size="96" font-weight="600" letter-spacing="-6">A3S</text>
  <text x="98" y="396" fill="#f1f4f2" font-family="ui-monospace, SFMono-Regular, Menlo, monospace" font-size="46" letter-spacing="-2">智能体操作系统</text>
  <text x="100" y="459" fill="#858b88" font-family="ui-monospace, SFMono-Regular, Menlo, monospace" font-size="25">AN OPERATING SYSTEM FOR AGENTS</text>
  <circle cx="1040" cy="456" r="7" fill="#75c7c3"/>
  <text x="1062" y="465" fill="#75c7c3" font-family="ui-monospace, SFMono-Regular, Menlo, monospace" font-size="23">OPEN</text>
</svg>
